<svg xmlns="http://www.w3.org/2000/svg" xmlns:xlink="http://www.w3.org/1999/xlink" viewBox="0 0 287.21 60.21"><defs><style>.cls-1,.cls-2{fill:none;stroke:#231f20;stroke-linecap:round;stroke-linejoin:round;}.cls-1{stroke-width:3px;}.cls-2{stroke-width:5px;}.cls-3,.cls-4{fill:#00b2a5;}.cls-4{stroke-miterlimit:10;stroke:url(#linear-gradient);}</style><linearGradient id="linear-gradient" x1="26.3" y1="31.93" x2="53.59" y2="31.93" gradientUnits="userSpaceOnUse"><stop offset="0" stop-color="#fff"/><stop offset="0.35" stop-color="#fdfefe"/><stop offset="0.48" stop-color="#f6fcfc"/><stop offset="0.57" stop-color="#ebf9f8"/><stop offset="0.64" stop-color="#daf4f2"/><stop offset="0.7" stop-color="#c4edea"/><stop offset="0.76" stop-color="#a8e5e0"/><stop offset="0.81" stop-color="#88dbd5"/><stop offset="0.85" stop-color="#62d0c8"/><stop offset="0.9" stop-color="#37c3b8"/><stop offset="0.93" stop-color="#09b5a8"/><stop offset="0.94" stop-color="#00b2a5"/></linearGradient></defs><title>logo2</title><g id="Layer_2" data-name="Layer 2"><g id="Layer_1-2" data-name="Layer 1"><path class="cls-1" d="M11.06,38.41,1.5,28.86,19.56,10.93a3.37,3.37,0,0,1,2.43-1H57.25a3.71,3.71,0,0,1,2.44,1l18,18-9.49,9.49" transform="translate(0 -8.43)"/><path class="cls-1" d="M58.7,38.81V63.58a3.54,3.54,0,0,1-3.56,3.56H24a3.54,3.54,0,0,1-3.56-3.56V38.81" transform="translate(0 -8.43)"/><path class="cls-2" d="M48.42,10.93c0,3.63-4,6.53-8.83,6.53s-8.83-2.9-8.83-6.53" transform="translate(0 -8.43)"/><path class="cls-3" d="M110.71,38.6a15.83,15.83,0,0,0,4-.88,3,3,0,0,0,2.16-2.84,3.38,3.38,0,0,0-1.66-3.26,10.57,10.57,0,0,0-4.86-.89q-3.6,0-5.1,1.75A7.32,7.32,0,0,0,103.82,36H94.16A14.64,14.64,0,0,1,97,27.74q4-5.07,13.7-5.06a24.49,24.49,0,0,1,11.23,2.49q4.91,2.5,4.91,9.42V52.17c0,1.22,0,2.7.07,4.43a5.69,5.69,0,0,0,.59,2.67A3.54,3.54,0,0,0,129,60.43v1.48h-10.9a11.61,11.61,0,0,1-.63-2.18c-.12-.68-.21-1.45-.28-2.32a20.65,20.65,0,0,1-4.81,3.83A14.57,14.57,0,0,1,105,63.11a12.64,12.64,0,0,1-8.64-3c-2.28-2-3.41-4.78-3.41-8.42q0-7.07,5.49-10.23A24.75,24.75,0,0,1,107.27,39Zm6.12,4.68a10.59,10.59,0,0,1-1.94,1,15.8,15.8,0,0,1-2.69.69l-2.28.42a15.2,15.2,0,0,0-4.61,1.37A4.57,4.57,0,0,0,103,51a4.47,4.47,0,0,0,1.44,3.71,5.51,5.51,0,0,0,3.52,1.14,10.45,10.45,0,0,0,6-1.9c1.84-1.27,2.8-3.57,2.87-6.93Z" transform="translate(0 -8.43)"/><path class="cls-3" d="M135.55,26.19h8.64l.76,6.24h.26c2.6-4.77,6.51-7.11,10.15-7.11a9.87,9.87,0,0,1,4.26.72l-1.76,9.14A14.27,14.27,0,0,0,154,34.6c-2.7,0-6,1.74-7.87,6.61v20.7H135.55Z" transform="translate(0 -8.43)"/><path class="cls-3" d="M160.29,31.08V23.94h5.34V13.25h9.92V23.94h6.22v7.14h-6.22V51.33c0,1.57.2,2.55.59,2.93s1.62.58,3.66.58h1c.34,0,.67,0,1-.06v7.49l-4.75.18q-7.1.24-9.7-2.46-1.69-1.73-1.69-5.31V31.08Z" transform="translate(0 -8.43)"/><path class="cls-3" d="M184.26,31.08V23.94h5.35V13.25h9.91V23.94h6.23v7.14h-6.23V51.33c0,1.57.2,2.55.6,2.93s1.62.58,3.66.58h1c.34,0,.68,0,1-.06v7.49l-4.75.18q-7.11.24-9.7-2.46-1.7-1.73-1.69-5.31V31.08Z" transform="translate(0 -8.43)"/><path class="cls-3" d="M237.15,24.37A15.49,15.49,0,0,1,243.77,30a18.68,18.68,0,0,1,3,7.92,49.82,49.82,0,0,1,.34,7.6H219.25q.23,5.77,4,8.09a10.19,10.19,0,0,0,5.53,1.44,8.49,8.49,0,0,0,5.56-1.76,8.29,8.29,0,0,0,2.06-2.63h10.23a12.53,12.53,0,0,1-3.71,6.92q-5.16,5.6-14.42,5.59A20.91,20.91,0,0,1,215,58.5q-5.85-4.72-5.84-15.35,0-9.94,5.27-15.27t13.71-5.31A21.77,21.77,0,0,1,237.15,24.37Zm-15,8.65A10.37,10.37,0,0,0,219.49,39h17.26a8.33,8.33,0,0,0-2.67-6.05,8.74,8.74,0,0,0-5.94-2.07A8,8,0,0,0,222.16,33Z" transform="translate(0 -8.43)"/><path class="cls-3" d="M277.19,24.37A15.43,15.43,0,0,1,283.81,30,18.82,18.82,0,0,1,286.87,38a48.79,48.79,0,0,1,.33,7.6H259.29q.22,5.77,4,8.09a10.18,10.18,0,0,0,5.52,1.44,7.82,7.82,0,0,0,7.63-4.39h10.23A12.49,12.49,0,0,1,283,57.62q-5.15,5.6-14.42,5.59a20.86,20.86,0,0,1-13.49-4.71q-5.85-4.72-5.85-15.35,0-9.94,5.28-15.27t13.7-5.31A21.73,21.73,0,0,1,277.19,24.37ZM262.2,33A10.5,10.5,0,0,0,259.53,39H276.8a8.41,8.41,0,0,0-2.67-6.05,8.78,8.78,0,0,0-5.95-2.07A8,8,0,0,0,262.2,33Z" transform="translate(0 -8.43)"/><polygon class="cls-4" points="26.8 15.75 53.09 15.75 53.09 48.11 26.8 48.11 26.8 16.34 26.8 15.75"/></g></g></svg>