<svg xmlns="http://www.w3.org/2000/svg" xmlns:xlink="http://www.w3.org/1999/xlink" viewBox="0 0 194.28 125.78"><defs><style>.cls-1,.cls-2{fill:none;stroke:#231f20;stroke-linecap:round;stroke-linejoin:round;}.cls-1{stroke-width:3px;}.cls-2{stroke-width:5px;}.cls-3{fill:#00b2a5;}.cls-4{stroke-miterlimit:10;fill:url(#linear-gradient);stroke:url(#linear-gradient-2);}</style><linearGradient id="linear-gradient" x1="75.4" y1="47.55" x2="104.02" y2="18.92" gradientUnits="userSpaceOnUse"><stop offset="0" stop-color="#fff"/><stop offset="0.1" stop-color="#ebf9f8"/><stop offset="0.31" stop-color="#b8e9e6"/><stop offset="0.61" stop-color="#65d0c9"/><stop offset="0.94" stop-color="#00b2a5"/></linearGradient><linearGradient id="linear-gradient-2" x1="75.37" y1="33.93" x2="102.66" y2="33.93" gradientUnits="userSpaceOnUse"><stop offset="0" stop-color="#fff"/><stop offset="0.35" stop-color="#fdfefe"/><stop offset="0.48" stop-color="#f6fcfc"/><stop offset="0.57" stop-color="#ebf9f8"/><stop offset="0.64" stop-color="#daf4f2"/><stop offset="0.7" stop-color="#c4edea"/><stop offset="0.76" stop-color="#a8e5e0"/><stop offset="0.81" stop-color="#88dbd5"/><stop offset="0.85" stop-color="#62d0c8"/><stop offset="0.9" stop-color="#37c3b8"/><stop offset="0.93" stop-color="#09b5a8"/><stop offset="0.94" stop-color="#00b2a5"/></linearGradient></defs><title>Asset 1</title><g id="Layer_2" data-name="Layer 2"><g id="Layer_1-2" data-name="Layer 1"><path class="cls-1" d="M62.2,30l-9.55-9.56L70.7,2.5a3.39,3.39,0,0,1,2.44-1H108.4a3.71,3.71,0,0,1,2.44,1l18,18L119.34,30" transform="translate(-2.07)"/><path class="cls-1" d="M109.85,30.38V55.15a3.54,3.54,0,0,1-3.56,3.56H75.19a3.54,3.54,0,0,1-3.56-3.56V30.38" transform="translate(-2.07)"/><path class="cls-2" d="M99.57,2.5c0,3.62-4,6.52-8.83,6.52s-8.83-2.9-8.83-6.52" transform="translate(-2.07)"/><path class="cls-3" d="M19.85,101.17a15.83,15.83,0,0,0,4-.88A3,3,0,0,0,26,97.44a3.38,3.38,0,0,0-1.66-3.25,10.49,10.49,0,0,0-4.87-.89q-3.58,0-5.09,1.75A7.32,7.32,0,0,0,13,98.57H3.31a14.64,14.64,0,0,1,2.82-8.26q4-5.07,13.7-5.07a24.49,24.49,0,0,1,11.23,2.5C34.33,89.4,36,92.55,36,97.16v17.58c0,1.22,0,2.7.07,4.43a5.69,5.69,0,0,0,.59,2.67A3.54,3.54,0,0,0,38.11,123v1.48H27.21a11.61,11.61,0,0,1-.63-2.18c-.12-.68-.21-1.45-.28-2.32a20.65,20.65,0,0,1-4.81,3.83,14.56,14.56,0,0,1-7.36,1.86,12.67,12.67,0,0,1-8.64-3c-2.28-2-3.42-4.78-3.42-8.42q0-7.07,5.49-10.23a24.47,24.47,0,0,1,8.86-2.46ZM26,105.85a11.27,11.27,0,0,1-1.94,1,16.05,16.05,0,0,1-2.69.69l-2.28.42a15.11,15.11,0,0,0-4.61,1.37,4.58,4.58,0,0,0-2.37,4.26,4.44,4.44,0,0,0,1.45,3.7,5.46,5.46,0,0,0,3.52,1.15,10.52,10.52,0,0,0,6.05-1.9q2.76-1.91,2.87-6.93Z" transform="translate(-2.07)"/><path class="cls-3" d="M44.7,88.75h8.64L54.1,95h.26c2.6-4.77,6.51-7.11,10.15-7.11a9.87,9.87,0,0,1,4.26.72L67,97.75a14.27,14.27,0,0,0-3.85-.58c-2.7,0-6,1.74-7.87,6.61v20.7H44.7Z" transform="translate(-2.07)"/><path class="cls-3" d="M69.44,93.65V86.51h5.34V75.82h9.91V86.51h6.23v7.14H84.69V113.9c0,1.57.2,2.55.6,2.93s1.62.58,3.66.58h1c.34,0,.67,0,1-.06v7.49l-4.75.18q-7.1.24-9.7-2.46-1.69-1.72-1.69-5.31V93.65Z" transform="translate(-2.07)"/><path class="cls-3" d="M93.41,93.65V86.51h5.35V75.82h9.91V86.51h6.22v7.14h-6.22V113.9c0,1.57.2,2.55.6,2.93s1.62.58,3.66.58h1c.34,0,.68,0,1-.06v7.49l-4.74.18q-7.11.24-9.71-2.46-1.68-1.72-1.68-5.31V93.65Z" transform="translate(-2.07)"/><path class="cls-3" d="M146.3,86.94a15.53,15.53,0,0,1,6.62,5.66,18.77,18.77,0,0,1,3.05,7.93,48.79,48.79,0,0,1,.33,7.6H128.39q.24,5.78,4,8.09a10.19,10.19,0,0,0,5.53,1.44,8.49,8.49,0,0,0,5.56-1.76,8.37,8.37,0,0,0,2.06-2.64h10.23a12.52,12.52,0,0,1-3.71,6.93q-5.16,5.59-14.42,5.59a20.91,20.91,0,0,1-13.5-4.71q-5.85-4.72-5.85-15.35,0-9.94,5.28-15.27t13.71-5.31A21.77,21.77,0,0,1,146.3,86.94Zm-15,8.65a10.37,10.37,0,0,0-2.67,5.93H145.9a8.32,8.32,0,0,0-2.67-6,8.76,8.76,0,0,0-5.94-2.07A8,8,0,0,0,131.31,95.59Z" transform="translate(-2.07)"/><path class="cls-3" d="M186.34,86.94A15.53,15.53,0,0,1,193,92.6a18.91,18.91,0,0,1,3.06,7.93,48.79,48.79,0,0,1,.33,7.6H168.44q.23,5.78,4,8.09a10.24,10.24,0,0,0,5.53,1.44,8.48,8.48,0,0,0,5.56-1.76,8.23,8.23,0,0,0,2.06-2.64h10.23a12.46,12.46,0,0,1-3.71,6.93q-5.15,5.59-14.42,5.59a20.91,20.91,0,0,1-13.5-4.71q-5.83-4.72-5.84-15.35,0-9.94,5.28-15.27t13.7-5.31A21.77,21.77,0,0,1,186.34,86.94Zm-15,8.65a10.5,10.5,0,0,0-2.67,5.93h17.26a8.35,8.35,0,0,0-2.66-6,8.78,8.78,0,0,0-5.95-2.07A8,8,0,0,0,171.35,95.59Z" transform="translate(-2.07)"/><polygon class="cls-4" points="75.87 17.75 102.16 17.75 102.16 50.11 75.87 50.11 75.87 18.34 75.87 17.75"/></g></g></svg>